<?xml version="1.0" encoding="UTF-8"?>
<svg xmlns="http://www.w3.org/2000/svg" xmlns:xlink="http://www.w3.org/1999/xlink" width="10pt" height="10pt" viewBox="0 0 10 10" version="1.1">
<g id="surface1">
<path style=" stroke:none;fill-rule:nonzero;fill:rgb(0%,0%,0%);fill-opacity:1;" d="M 5.625 0.761719 L 5.625 1.089844 C 5.625 1.300781 5.765625 1.480469 5.96875 1.539062 C 7.484375 1.960938 8.59375 3.351562 8.59375 5 C 8.59375 6.984375 6.988281 8.59375 5 8.59375 C 3.015625 8.59375 1.40625 6.988281 1.40625 5 C 1.40625 3.351562 2.515625 1.960938 4.03125 1.539062 C 4.234375 1.480469 4.375 1.300781 4.375 1.089844 L 4.375 0.761719 C 4.375 0.457031 4.085938 0.234375 3.789062 0.308594 C 1.691406 0.847656 0.144531 2.757812 0.15625 5.027344 C 0.171875 7.703125 2.332031 9.847656 5.011719 9.84375 C 7.679688 9.839844 9.84375 7.671875 9.84375 5 C 9.84375 2.742188 8.296875 0.84375 6.207031 0.308594 C 5.910156 0.230469 5.625 0.457031 5.625 0.761719 Z M 5.625 0.761719 "/>
</g>
</svg>
