<?xml version="1.0" encoding="UTF-8"?>
<svg xmlns="http://www.w3.org/2000/svg" xmlns:xlink="http://www.w3.org/1999/xlink" width="7pt" height="10pt" viewBox="0 0 7 10" version="1.1">
<g id="surface1">
<path style=" stroke:none;fill-rule:nonzero;fill:rgb(0%,0%,0%);fill-opacity:1;" d="M 4.828125 5 L 6.816406 3.046875 C 7.0625 2.804688 7.0625 2.417969 6.816406 2.175781 L 6.375 1.742188 C 6.128906 1.503906 5.734375 1.503906 5.488281 1.742188 L 3.5 3.695312 L 1.511719 1.742188 C 1.265625 1.503906 0.871094 1.503906 0.625 1.742188 L 0.183594 2.175781 C -0.0625 2.417969 -0.0625 2.804688 0.183594 3.046875 L 2.171875 5 L 0.183594 6.953125 C -0.0625 7.195312 -0.0625 7.582031 0.183594 7.824219 L 0.625 8.257812 C 0.871094 8.496094 1.265625 8.496094 1.511719 8.257812 L 3.5 6.304688 L 5.488281 8.257812 C 5.734375 8.496094 6.128906 8.496094 6.375 8.257812 L 6.816406 7.824219 C 7.0625 7.582031 7.0625 7.195312 6.816406 6.953125 Z M 4.828125 5 "/>
</g>
</svg>
